<?xml version="1.0" encoding="UTF-8"?>
<svg xmlns="http://www.w3.org/2000/svg" xmlns:xlink="http://www.w3.org/1999/xlink" viewBox="0 0 100 100" width="100px" height="100px">
<g id="surface7097453">
<path style=" stroke:none;fill-rule:nonzero;fill:rgb(60.784316%,34.901962%,71.372551%);fill-opacity:1;" d="M 16 6.023438 C 12.625 6.023438 9.671875 6.984375 7.507812 8.730469 C 5.34375 10.476562 4.023438 13.066406 4.023438 15.894531 C 4.023438 21.382812 8.9375 25.628906 15.433594 25.882812 C 15.617188 25.941406 15.808594 25.972656 16 25.976562 C 19.507812 25.976562 22.492188 24.949219 24.625 23.128906 C 26.757812 21.308594 27.976562 18.6875 27.976562 15.894531 C 27.976562 15.859375 27.976562 15.820312 27.972656 15.785156 C 27.664062 10.261719 22.75 6.023438 16 6.023438 Z M 16 9.976562 C 21.21875 9.976562 23.792969 12.539062 24.011719 15.945312 C 23.996094 17.609375 23.351562 19.023438 22.0625 20.125 C 20.757812 21.238281 18.742188 22.023438 16 22.023438 C 10.796875 22.023438 7.976562 19.199219 7.976562 15.894531 C 7.976562 14.242188 8.65625 12.882812 9.992188 11.804688 C 11.328125 10.726562 13.375 9.976562 16 9.976562 Z M 6 30 C 4.894531 30 4 30.894531 4 32 L 4 90 C 4 91.105469 4.894531 92 6 92 L 26 92 C 27.105469 92 28 91.105469 28 90 L 28 32 C 28 30.894531 27.105469 30 26 30 Z M 36 30 C 34.894531 30 34 30.894531 34 32 L 34 90 C 34 91.105469 34.894531 92 36 92 L 56 92 C 57.105469 92 58 91.105469 58 90 L 58 57 C 58 53.109375 61.109375 50 65 50 C 68.890625 50 72 53.109375 72 57 L 72 90 C 72 91.105469 72.894531 92 74 92 L 94 92 C 95.105469 92 96 91.105469 96 90 L 96 56 C 96 47.746094 93.574219 41.207031 89.488281 36.75 C 85.402344 32.292969 79.699219 30 73.574219 30 C 65.765625 30 61.042969 32.851562 58 35.203125 L 58 32 C 58 30.894531 57.105469 30 56 30 Z M 8 34 L 24 34 L 24 88 L 8 88 Z M 38 34 L 54 34 L 54 39.277344 C 54 40.105469 54.511719 40.847656 55.285156 41.144531 C 56.058594 41.441406 56.933594 41.230469 57.488281 40.613281 C 57.488281 40.613281 63.417969 34 73.574219 34 C 78.71875 34 83.230469 35.84375 86.539062 39.453125 C 89.847656 43.0625 92 48.523438 92 56 L 92 88 L 76 88 L 76 57 C 76.003906 56.71875 75.945312 56.4375 75.832031 56.179688 C 75.386719 50.527344 70.761719 46 65 46 C 58.949219 46 54 50.949219 54 57 L 54 88 L 38 88 Z M 38 34 "/>
</g>
</svg>
